<?xml version="1.0" encoding="utf-8"?>
<svg xmlns="http://www.w3.org/2000/svg" xmlns:xlink="http://www.w3.org/1999/xlink" width="600" height="400" viewBox="0 0 2400 1600">
<defs>
  <clipPath id="clip940">
    <rect x="0" y="0" width="2400" height="1600"/>
  </clipPath>
</defs>
<path clip-path="url(#clip940)" d="M0 1600 L2400 1600 L2400 0 L0 0  Z" fill="#ffffff" fill-rule="evenodd" fill-opacity="1"/>
<defs>
  <clipPath id="clip941">
    <rect x="480" y="0" width="1681" height="1600"/>
  </clipPath>
</defs>
<path clip-path="url(#clip940)" d="M232.389 1423.18 L2243.4 1423.18 L2243.4 123.472 L232.389 123.472  Z" fill="#ffffff" fill-rule="evenodd" fill-opacity="1"/>
<defs>
  <clipPath id="clip942">
    <rect x="232" y="123" width="2012" height="1301"/>
  </clipPath>
</defs>
<polyline clip-path="url(#clip942)" style="stroke:#000000; stroke-linecap:round; stroke-linejoin:round; stroke-width:2; stroke-opacity:0.1; fill:none" points="289.305,1423.18 289.305,123.472 "/>
<polyline clip-path="url(#clip942)" style="stroke:#000000; stroke-linecap:round; stroke-linejoin:round; stroke-width:2; stroke-opacity:0.1; fill:none" points="882.174,1423.18 882.174,123.472 "/>
<polyline clip-path="url(#clip942)" style="stroke:#000000; stroke-linecap:round; stroke-linejoin:round; stroke-width:2; stroke-opacity:0.1; fill:none" points="1475.04,1423.18 1475.04,123.472 "/>
<polyline clip-path="url(#clip942)" style="stroke:#000000; stroke-linecap:round; stroke-linejoin:round; stroke-width:2; stroke-opacity:0.1; fill:none" points="2067.91,1423.18 2067.91,123.472 "/>
<polyline clip-path="url(#clip940)" style="stroke:#000000; stroke-linecap:round; stroke-linejoin:round; stroke-width:4; stroke-opacity:1; fill:none" points="232.389,1423.18 2243.4,1423.18 "/>
<polyline clip-path="url(#clip940)" style="stroke:#000000; stroke-linecap:round; stroke-linejoin:round; stroke-width:4; stroke-opacity:1; fill:none" points="289.305,1423.18 289.305,1404.28 "/>
<polyline clip-path="url(#clip940)" style="stroke:#000000; stroke-linecap:round; stroke-linejoin:round; stroke-width:4; stroke-opacity:1; fill:none" points="882.174,1423.18 882.174,1404.28 "/>
<polyline clip-path="url(#clip940)" style="stroke:#000000; stroke-linecap:round; stroke-linejoin:round; stroke-width:4; stroke-opacity:1; fill:none" points="1475.04,1423.18 1475.04,1404.28 "/>
<polyline clip-path="url(#clip940)" style="stroke:#000000; stroke-linecap:round; stroke-linejoin:round; stroke-width:4; stroke-opacity:1; fill:none" points="2067.91,1423.18 2067.91,1404.28 "/>
<path clip-path="url(#clip940)" d="M289.305 1454.1 Q285.694 1454.1 283.865 1457.66 Q282.059 1461.2 282.059 1468.33 Q282.059 1475.44 283.865 1479.01 Q285.694 1482.55 289.305 1482.55 Q292.939 1482.55 294.745 1479.01 Q296.573 1475.44 296.573 1468.33 Q296.573 1461.2 294.745 1457.66 Q292.939 1454.1 289.305 1454.1 M289.305 1450.39 Q295.115 1450.39 298.17 1455 Q301.249 1459.58 301.249 1468.33 Q301.249 1477.06 298.17 1481.67 Q295.115 1486.25 289.305 1486.25 Q283.495 1486.25 280.416 1481.67 Q277.36 1477.06 277.36 1468.33 Q277.36 1459.58 280.416 1455 Q283.495 1450.39 289.305 1450.39 Z" fill="#000000" fill-rule="nonzero" fill-opacity="1" /><path clip-path="url(#clip940)" d="M841.792 1451.02 L860.149 1451.02 L860.149 1454.96 L846.075 1454.96 L846.075 1463.43 Q847.093 1463.08 848.112 1462.92 Q849.13 1462.73 850.149 1462.73 Q855.936 1462.73 859.315 1465.9 Q862.695 1469.08 862.695 1474.49 Q862.695 1480.07 859.223 1483.17 Q855.751 1486.25 849.431 1486.25 Q847.255 1486.25 844.987 1485.88 Q842.741 1485.51 840.334 1484.77 L840.334 1480.07 Q842.417 1481.2 844.639 1481.76 Q846.862 1482.32 849.339 1482.32 Q853.343 1482.32 855.681 1480.21 Q858.019 1478.1 858.019 1474.49 Q858.019 1470.88 855.681 1468.77 Q853.343 1466.67 849.339 1466.67 Q847.464 1466.67 845.589 1467.08 Q843.737 1467.5 841.792 1468.38 L841.792 1451.02 Z" fill="#000000" fill-rule="nonzero" fill-opacity="1" /><path clip-path="url(#clip940)" d="M881.908 1454.1 Q878.297 1454.1 876.468 1457.66 Q874.662 1461.2 874.662 1468.33 Q874.662 1475.44 876.468 1479.01 Q878.297 1482.55 881.908 1482.55 Q885.542 1482.55 887.348 1479.01 Q889.176 1475.44 889.176 1468.33 Q889.176 1461.2 887.348 1457.66 Q885.542 1454.1 881.908 1454.1 M881.908 1450.39 Q887.718 1450.39 890.774 1455 Q893.852 1459.58 893.852 1468.33 Q893.852 1477.06 890.774 1481.67 Q887.718 1486.25 881.908 1486.25 Q876.098 1486.25 873.019 1481.67 Q869.963 1477.06 869.963 1468.33 Q869.963 1459.58 873.019 1455 Q876.098 1450.39 881.908 1450.39 Z" fill="#000000" fill-rule="nonzero" fill-opacity="1" /><path clip-path="url(#clip940)" d="M912.07 1454.1 Q908.459 1454.1 906.63 1457.66 Q904.824 1461.2 904.824 1468.33 Q904.824 1475.44 906.63 1479.01 Q908.459 1482.55 912.07 1482.55 Q915.704 1482.55 917.509 1479.01 Q919.338 1475.44 919.338 1468.33 Q919.338 1461.2 917.509 1457.66 Q915.704 1454.1 912.07 1454.1 M912.07 1450.39 Q917.88 1450.39 920.935 1455 Q924.014 1459.58 924.014 1468.33 Q924.014 1477.06 920.935 1481.67 Q917.88 1486.25 912.07 1486.25 Q906.26 1486.25 903.181 1481.67 Q900.125 1477.06 900.125 1468.33 Q900.125 1459.58 903.181 1455 Q906.26 1450.39 912.07 1450.39 Z" fill="#000000" fill-rule="nonzero" fill-opacity="1" /><path clip-path="url(#clip940)" d="M1419.57 1481.64 L1427.21 1481.64 L1427.21 1455.28 L1418.9 1456.95 L1418.9 1452.69 L1427.16 1451.02 L1431.84 1451.02 L1431.84 1481.64 L1439.48 1481.64 L1439.48 1485.58 L1419.57 1485.58 L1419.57 1481.64 Z" fill="#000000" fill-rule="nonzero" fill-opacity="1" /><path clip-path="url(#clip940)" d="M1458.92 1454.1 Q1455.31 1454.1 1453.48 1457.66 Q1451.68 1461.2 1451.68 1468.33 Q1451.68 1475.44 1453.48 1479.01 Q1455.31 1482.55 1458.92 1482.55 Q1462.55 1482.55 1464.36 1479.01 Q1466.19 1475.44 1466.19 1468.33 Q1466.19 1461.2 1464.36 1457.66 Q1462.55 1454.1 1458.92 1454.1 M1458.92 1450.39 Q1464.73 1450.39 1467.79 1455 Q1470.87 1459.58 1470.87 1468.33 Q1470.87 1477.06 1467.79 1481.67 Q1464.73 1486.25 1458.92 1486.25 Q1453.11 1486.25 1450.03 1481.67 Q1446.98 1477.06 1446.98 1468.33 Q1446.98 1459.58 1450.03 1455 Q1453.11 1450.39 1458.92 1450.39 Z" fill="#000000" fill-rule="nonzero" fill-opacity="1" /><path clip-path="url(#clip940)" d="M1489.08 1454.1 Q1485.47 1454.1 1483.64 1457.66 Q1481.84 1461.2 1481.84 1468.33 Q1481.84 1475.44 1483.64 1479.01 Q1485.47 1482.55 1489.08 1482.55 Q1492.72 1482.55 1494.52 1479.01 Q1496.35 1475.44 1496.35 1468.33 Q1496.35 1461.2 1494.52 1457.66 Q1492.72 1454.1 1489.08 1454.1 M1489.08 1450.39 Q1494.89 1450.39 1497.95 1455 Q1501.03 1459.58 1501.03 1468.33 Q1501.03 1477.06 1497.95 1481.67 Q1494.89 1486.25 1489.08 1486.25 Q1483.27 1486.25 1480.19 1481.67 Q1477.14 1477.06 1477.14 1468.33 Q1477.14 1459.58 1480.19 1455 Q1483.27 1450.39 1489.08 1450.39 Z" fill="#000000" fill-rule="nonzero" fill-opacity="1" /><path clip-path="url(#clip940)" d="M1519.24 1454.1 Q1515.63 1454.1 1513.8 1457.66 Q1512 1461.2 1512 1468.33 Q1512 1475.44 1513.8 1479.01 Q1515.63 1482.55 1519.24 1482.55 Q1522.88 1482.55 1524.68 1479.01 Q1526.51 1475.44 1526.51 1468.33 Q1526.51 1461.2 1524.68 1457.66 Q1522.88 1454.1 1519.24 1454.1 M1519.24 1450.39 Q1525.05 1450.39 1528.11 1455 Q1531.19 1459.58 1531.19 1468.33 Q1531.19 1477.06 1528.11 1481.67 Q1525.05 1486.25 1519.24 1486.25 Q1513.43 1486.25 1510.36 1481.67 Q1507.3 1477.06 1507.3 1468.33 Q1507.3 1459.58 1510.36 1455 Q1513.43 1450.39 1519.24 1450.39 Z" fill="#000000" fill-rule="nonzero" fill-opacity="1" /><path clip-path="url(#clip940)" d="M2012.44 1481.64 L2020.08 1481.64 L2020.08 1455.28 L2011.77 1456.95 L2011.77 1452.69 L2020.03 1451.02 L2024.71 1451.02 L2024.71 1481.64 L2032.35 1481.64 L2032.35 1485.58 L2012.44 1485.58 L2012.44 1481.64 Z" fill="#000000" fill-rule="nonzero" fill-opacity="1" /><path clip-path="url(#clip940)" d="M2041.84 1451.02 L2060.19 1451.02 L2060.19 1454.96 L2046.12 1454.96 L2046.12 1463.43 Q2047.14 1463.08 2048.16 1462.92 Q2049.17 1462.73 2050.19 1462.73 Q2055.98 1462.73 2059.36 1465.9 Q2062.74 1469.08 2062.74 1474.49 Q2062.74 1480.07 2059.27 1483.17 Q2055.79 1486.25 2049.48 1486.25 Q2047.3 1486.25 2045.03 1485.88 Q2042.79 1485.51 2040.38 1484.77 L2040.38 1480.07 Q2042.46 1481.2 2044.68 1481.76 Q2046.91 1482.32 2049.38 1482.32 Q2053.39 1482.32 2055.73 1480.21 Q2058.06 1478.1 2058.06 1474.49 Q2058.06 1470.88 2055.73 1468.77 Q2053.39 1466.67 2049.38 1466.67 Q2047.51 1466.67 2045.63 1467.08 Q2043.78 1467.5 2041.84 1468.38 L2041.84 1451.02 Z" fill="#000000" fill-rule="nonzero" fill-opacity="1" /><path clip-path="url(#clip940)" d="M2081.95 1454.1 Q2078.34 1454.1 2076.51 1457.66 Q2074.71 1461.2 2074.71 1468.33 Q2074.71 1475.44 2076.51 1479.01 Q2078.34 1482.55 2081.95 1482.55 Q2085.59 1482.55 2087.39 1479.01 Q2089.22 1475.44 2089.22 1468.33 Q2089.22 1461.2 2087.39 1457.66 Q2085.59 1454.1 2081.95 1454.1 M2081.95 1450.39 Q2087.76 1450.39 2090.82 1455 Q2093.9 1459.58 2093.9 1468.33 Q2093.9 1477.06 2090.82 1481.67 Q2087.76 1486.25 2081.95 1486.25 Q2076.14 1486.25 2073.06 1481.67 Q2070.01 1477.06 2070.01 1468.33 Q2070.01 1459.58 2073.06 1455 Q2076.14 1450.39 2081.95 1450.39 Z" fill="#000000" fill-rule="nonzero" fill-opacity="1" /><path clip-path="url(#clip940)" d="M2112.11 1454.1 Q2108.5 1454.1 2106.67 1457.66 Q2104.87 1461.2 2104.87 1468.33 Q2104.87 1475.44 2106.67 1479.01 Q2108.5 1482.55 2112.11 1482.55 Q2115.75 1482.55 2117.55 1479.01 Q2119.38 1475.44 2119.38 1468.33 Q2119.38 1461.2 2117.55 1457.66 Q2115.75 1454.1 2112.11 1454.1 M2112.11 1450.39 Q2117.92 1450.39 2120.98 1455 Q2124.06 1459.58 2124.06 1468.33 Q2124.06 1477.06 2120.98 1481.67 Q2117.92 1486.25 2112.11 1486.25 Q2106.3 1486.25 2103.22 1481.67 Q2100.17 1477.06 2100.17 1468.33 Q2100.17 1459.58 2103.22 1455 Q2106.3 1450.39 2112.11 1450.39 Z" fill="#000000" fill-rule="nonzero" fill-opacity="1" /><path clip-path="url(#clip940)" d="M1159.77 1520.52 L1199.97 1520.52 L1199.97 1525.93 L1183.1 1525.93 L1183.1 1568.04 L1176.64 1568.04 L1176.64 1525.93 L1159.77 1525.93 L1159.77 1520.52 Z" fill="#000000" fill-rule="nonzero" fill-opacity="1" /><path clip-path="url(#clip940)" d="M1203.92 1532.4 L1209.78 1532.4 L1209.78 1568.04 L1203.92 1568.04 L1203.92 1532.4 M1203.92 1518.52 L1209.78 1518.52 L1209.78 1525.93 L1203.92 1525.93 L1203.92 1518.52 Z" fill="#000000" fill-rule="nonzero" fill-opacity="1" /><path clip-path="url(#clip940)" d="M1249.78 1539.24 Q1251.98 1535.29 1255.04 1533.41 Q1258.09 1531.54 1262.23 1531.54 Q1267.8 1531.54 1270.82 1535.45 Q1273.85 1539.33 1273.85 1546.53 L1273.85 1568.04 L1267.96 1568.04 L1267.96 1546.72 Q1267.96 1541.59 1266.14 1539.11 Q1264.33 1536.63 1260.61 1536.63 Q1256.05 1536.63 1253.41 1539.65 Q1250.77 1542.68 1250.77 1547.9 L1250.77 1568.04 L1244.88 1568.04 L1244.88 1546.72 Q1244.88 1541.56 1243.07 1539.11 Q1241.25 1536.63 1237.47 1536.63 Q1232.98 1536.63 1230.34 1539.68 Q1227.69 1542.71 1227.69 1547.9 L1227.69 1568.04 L1221.81 1568.04 L1221.81 1532.4 L1227.69 1532.4 L1227.69 1537.93 Q1229.7 1534.66 1232.5 1533.1 Q1235.3 1531.54 1239.15 1531.54 Q1243.04 1531.54 1245.74 1533.51 Q1248.48 1535.48 1249.78 1539.24 Z" fill="#000000" fill-rule="nonzero" fill-opacity="1" /><path clip-path="url(#clip940)" d="M1316.02 1548.76 L1316.02 1551.62 L1289.09 1551.62 Q1289.47 1557.67 1292.72 1560.85 Q1296 1564 1301.82 1564 Q1305.2 1564 1308.35 1563.17 Q1311.53 1562.35 1314.65 1560.69 L1314.65 1566.23 Q1311.5 1567.57 1308.19 1568.27 Q1304.88 1568.97 1301.47 1568.97 Q1292.94 1568.97 1287.95 1564 Q1282.98 1559.04 1282.98 1550.57 Q1282.98 1541.82 1287.69 1536.69 Q1292.43 1531.54 1300.45 1531.54 Q1307.65 1531.54 1311.82 1536.18 Q1316.02 1540.8 1316.02 1548.76 M1310.16 1547.04 Q1310.1 1542.23 1307.46 1539.37 Q1304.85 1536.5 1300.52 1536.5 Q1295.62 1536.5 1292.66 1539.27 Q1289.73 1542.04 1289.28 1547.07 L1310.16 1547.04 Z" fill="#000000" fill-rule="nonzero" fill-opacity="1" /><polyline clip-path="url(#clip940)" style="stroke:#000000; stroke-linecap:round; stroke-linejoin:round; stroke-width:4; stroke-opacity:1; fill:none" points="232.389,1423.18 232.389,123.472 "/>
<polyline clip-path="url(#clip940)" style="stroke:#000000; stroke-linecap:round; stroke-linejoin:round; stroke-width:4; stroke-opacity:1; fill:none" points="232.389,1218.07 251.287,1218.07 "/>
<polyline clip-path="url(#clip940)" style="stroke:#000000; stroke-linecap:round; stroke-linejoin:round; stroke-width:4; stroke-opacity:1; fill:none" points="232.389,964.014 251.287,964.014 "/>
<polyline clip-path="url(#clip940)" style="stroke:#000000; stroke-linecap:round; stroke-linejoin:round; stroke-width:4; stroke-opacity:1; fill:none" points="232.389,709.956 251.287,709.956 "/>
<polyline clip-path="url(#clip940)" style="stroke:#000000; stroke-linecap:round; stroke-linejoin:round; stroke-width:4; stroke-opacity:1; fill:none" points="232.389,455.898 251.287,455.898 "/>
<polyline clip-path="url(#clip940)" style="stroke:#000000; stroke-linecap:round; stroke-linejoin:round; stroke-width:4; stroke-opacity:1; fill:none" points="232.389,201.84 251.287,201.84 "/>
<path clip-path="url(#clip940)" d="M149.306 1231.42 L165.626 1231.42 L165.626 1235.35 L143.681 1235.35 L143.681 1231.42 Q146.343 1228.66 150.927 1224.03 Q155.533 1219.38 156.714 1218.04 Q158.959 1215.51 159.839 1213.78 Q160.741 1212.02 160.741 1210.33 Q160.741 1207.57 158.797 1205.84 Q156.876 1204.1 153.774 1204.1 Q151.575 1204.1 149.121 1204.87 Q146.691 1205.63 143.913 1207.18 L143.913 1202.46 Q146.737 1201.32 149.191 1200.75 Q151.644 1200.17 153.681 1200.17 Q159.052 1200.17 162.246 1202.85 Q165.44 1205.54 165.44 1210.03 Q165.44 1212.16 164.63 1214.08 Q163.843 1215.98 161.737 1218.57 Q161.158 1219.24 158.056 1222.46 Q154.954 1225.65 149.306 1231.42 Z" fill="#000000" fill-rule="nonzero" fill-opacity="1" /><path clip-path="url(#clip940)" d="M175.487 1200.79 L193.843 1200.79 L193.843 1204.73 L179.769 1204.73 L179.769 1213.2 Q180.788 1212.85 181.806 1212.69 Q182.825 1212.5 183.843 1212.5 Q189.63 1212.5 193.01 1215.68 Q196.389 1218.85 196.389 1224.26 Q196.389 1229.84 192.917 1232.94 Q189.445 1236.02 183.126 1236.02 Q180.95 1236.02 178.681 1235.65 Q176.436 1235.28 174.028 1234.54 L174.028 1229.84 Q176.112 1230.98 178.334 1231.53 Q180.556 1232.09 183.033 1232.09 Q187.038 1232.09 189.375 1229.98 Q191.713 1227.88 191.713 1224.26 Q191.713 1220.65 189.375 1218.55 Q187.038 1216.44 183.033 1216.44 Q181.158 1216.44 179.283 1216.86 Q177.431 1217.27 175.487 1218.15 L175.487 1200.79 Z" fill="#000000" fill-rule="nonzero" fill-opacity="1" /><path clip-path="url(#clip940)" d="M144.329 946.734 L162.686 946.734 L162.686 950.669 L148.612 950.669 L148.612 959.141 Q149.63 958.794 150.649 958.632 Q151.667 958.447 152.686 958.447 Q158.473 958.447 161.852 961.618 Q165.232 964.79 165.232 970.206 Q165.232 975.785 161.76 978.887 Q158.288 981.965 151.968 981.965 Q149.792 981.965 147.524 981.595 Q145.279 981.225 142.871 980.484 L142.871 975.785 Q144.954 976.919 147.177 977.475 Q149.399 978.03 151.876 978.03 Q155.88 978.03 158.218 975.924 Q160.556 973.817 160.556 970.206 Q160.556 966.595 158.218 964.489 Q155.88 962.382 151.876 962.382 Q150.001 962.382 148.126 962.799 Q146.274 963.215 144.329 964.095 L144.329 946.734 Z" fill="#000000" fill-rule="nonzero" fill-opacity="1" /><path clip-path="url(#clip940)" d="M184.445 949.813 Q180.834 949.813 179.005 953.378 Q177.2 956.919 177.2 964.049 Q177.2 971.155 179.005 974.72 Q180.834 978.262 184.445 978.262 Q188.079 978.262 189.885 974.72 Q191.713 971.155 191.713 964.049 Q191.713 956.919 189.885 953.378 Q188.079 949.813 184.445 949.813 M184.445 946.109 Q190.255 946.109 193.311 950.716 Q196.389 955.299 196.389 964.049 Q196.389 972.776 193.311 977.382 Q190.255 981.965 184.445 981.965 Q178.635 981.965 175.556 977.382 Q172.501 972.776 172.501 964.049 Q172.501 955.299 175.556 950.716 Q178.635 946.109 184.445 946.109 Z" fill="#000000" fill-rule="nonzero" fill-opacity="1" /><path clip-path="url(#clip940)" d="M144.098 692.676 L166.32 692.676 L166.32 694.667 L153.774 727.236 L148.89 727.236 L160.695 696.611 L144.098 696.611 L144.098 692.676 Z" fill="#000000" fill-rule="nonzero" fill-opacity="1" /><path clip-path="url(#clip940)" d="M175.487 692.676 L193.843 692.676 L193.843 696.611 L179.769 696.611 L179.769 705.084 Q180.788 704.736 181.806 704.574 Q182.825 704.389 183.843 704.389 Q189.63 704.389 193.01 707.56 Q196.389 710.732 196.389 716.148 Q196.389 721.727 192.917 724.829 Q189.445 727.907 183.126 727.907 Q180.95 727.907 178.681 727.537 Q176.436 727.167 174.028 726.426 L174.028 721.727 Q176.112 722.861 178.334 723.417 Q180.556 723.972 183.033 723.972 Q187.038 723.972 189.375 721.866 Q191.713 719.759 191.713 716.148 Q191.713 712.537 189.375 710.431 Q187.038 708.324 183.033 708.324 Q181.158 708.324 179.283 708.741 Q177.431 709.158 175.487 710.037 L175.487 692.676 Z" fill="#000000" fill-rule="nonzero" fill-opacity="1" /><path clip-path="url(#clip940)" d="M114.931 469.243 L122.57 469.243 L122.57 442.878 L114.26 444.544 L114.26 440.285 L122.524 438.618 L127.2 438.618 L127.2 469.243 L134.839 469.243 L134.839 473.178 L114.931 473.178 L114.931 469.243 Z" fill="#000000" fill-rule="nonzero" fill-opacity="1" /><path clip-path="url(#clip940)" d="M154.283 441.697 Q150.672 441.697 148.843 445.262 Q147.038 448.803 147.038 455.933 Q147.038 463.039 148.843 466.604 Q150.672 470.146 154.283 470.146 Q157.917 470.146 159.723 466.604 Q161.552 463.039 161.552 455.933 Q161.552 448.803 159.723 445.262 Q157.917 441.697 154.283 441.697 M154.283 437.993 Q160.093 437.993 163.149 442.6 Q166.227 447.183 166.227 455.933 Q166.227 464.66 163.149 469.266 Q160.093 473.85 154.283 473.85 Q148.473 473.85 145.394 469.266 Q142.339 464.66 142.339 455.933 Q142.339 447.183 145.394 442.6 Q148.473 437.993 154.283 437.993 Z" fill="#000000" fill-rule="nonzero" fill-opacity="1" /><path clip-path="url(#clip940)" d="M184.445 441.697 Q180.834 441.697 179.005 445.262 Q177.2 448.803 177.2 455.933 Q177.2 463.039 179.005 466.604 Q180.834 470.146 184.445 470.146 Q188.079 470.146 189.885 466.604 Q191.713 463.039 191.713 455.933 Q191.713 448.803 189.885 445.262 Q188.079 441.697 184.445 441.697 M184.445 437.993 Q190.255 437.993 193.311 442.6 Q196.389 447.183 196.389 455.933 Q196.389 464.66 193.311 469.266 Q190.255 473.85 184.445 473.85 Q178.635 473.85 175.556 469.266 Q172.501 464.66 172.501 455.933 Q172.501 447.183 175.556 442.6 Q178.635 437.993 184.445 437.993 Z" fill="#000000" fill-rule="nonzero" fill-opacity="1" /><path clip-path="url(#clip940)" d="M115.927 215.185 L123.566 215.185 L123.566 188.82 L115.256 190.486 L115.256 186.227 L123.519 184.56 L128.195 184.56 L128.195 215.185 L135.834 215.185 L135.834 219.12 L115.927 219.12 L115.927 215.185 Z" fill="#000000" fill-rule="nonzero" fill-opacity="1" /><path clip-path="url(#clip940)" d="M149.306 215.185 L165.626 215.185 L165.626 219.12 L143.681 219.12 L143.681 215.185 Q146.343 212.431 150.927 207.801 Q155.533 203.148 156.714 201.806 Q158.959 199.283 159.839 197.546 Q160.741 195.787 160.741 194.097 Q160.741 191.343 158.797 189.607 Q156.876 187.871 153.774 187.871 Q151.575 187.871 149.121 188.634 Q146.691 189.398 143.913 190.949 L143.913 186.227 Q146.737 185.093 149.191 184.514 Q151.644 183.935 153.681 183.935 Q159.052 183.935 162.246 186.621 Q165.44 189.306 165.44 193.796 Q165.44 195.926 164.63 197.847 Q163.843 199.745 161.737 202.338 Q161.158 203.009 158.056 206.227 Q154.954 209.421 149.306 215.185 Z" fill="#000000" fill-rule="nonzero" fill-opacity="1" /><path clip-path="url(#clip940)" d="M175.487 184.56 L193.843 184.56 L193.843 188.496 L179.769 188.496 L179.769 196.968 Q180.788 196.62 181.806 196.458 Q182.825 196.273 183.843 196.273 Q189.63 196.273 193.01 199.445 Q196.389 202.616 196.389 208.032 Q196.389 213.611 192.917 216.713 Q189.445 219.792 183.126 219.792 Q180.95 219.792 178.681 219.421 Q176.436 219.051 174.028 218.31 L174.028 213.611 Q176.112 214.745 178.334 215.301 Q180.556 215.857 183.033 215.857 Q187.038 215.857 189.375 213.75 Q191.713 211.644 191.713 208.032 Q191.713 204.421 189.375 202.315 Q187.038 200.208 183.033 200.208 Q181.158 200.208 179.283 200.625 Q177.431 201.042 175.487 201.921 L175.487 184.56 Z" fill="#000000" fill-rule="nonzero" fill-opacity="1" /><path clip-path="url(#clip940)" d="M18.0438 802.608 L24.314 802.608 Q22.5634 806.269 21.704 809.515 Q20.8447 812.762 20.8447 815.785 Q20.8447 821.037 22.8817 823.902 Q24.9187 826.734 28.6745 826.734 Q31.8255 826.734 33.4488 824.856 Q35.0402 822.947 36.0269 817.663 L36.8226 813.78 Q38.1912 806.587 41.6605 803.181 Q45.098 799.744 50.8908 799.744 Q57.7976 799.744 61.3624 804.391 Q64.9272 809.006 64.9272 817.95 Q64.9272 821.323 64.1633 825.143 Q63.3994 828.93 61.9035 833.004 L55.2831 833.004 Q57.4793 829.09 58.5933 825.334 Q59.7073 821.578 59.7073 817.95 Q59.7073 812.443 57.543 809.451 Q55.3786 806.459 51.3682 806.459 Q47.8671 806.459 45.8937 808.624 Q43.9204 810.756 42.9337 815.658 L42.1698 819.573 Q40.7375 826.766 37.682 829.981 Q34.6264 833.195 29.1837 833.195 Q22.8817 833.195 19.2532 828.771 Q15.6248 824.315 15.6248 816.517 Q15.6248 813.175 16.2295 809.706 Q16.8343 806.237 18.0438 802.608 Z" fill="#000000" fill-rule="nonzero" fill-opacity="1" /><path clip-path="url(#clip940)" d="M16.4842 789.718 L16.4842 783.288 L58.5933 783.288 L58.5933 760.149 L64.0042 760.149 L64.0042 789.718 L16.4842 789.718 Z" fill="#000000" fill-rule="nonzero" fill-opacity="1" /><path clip-path="url(#clip940)" d="M21.7677 746.972 L58.7206 746.972 L58.7206 739.206 Q58.7206 729.371 54.2646 724.819 Q49.8086 720.236 40.1964 720.236 Q30.6479 720.236 26.2237 724.819 Q21.7677 729.371 21.7677 739.206 L21.7677 746.972 M16.4842 753.401 L16.4842 740.192 Q16.4842 726.379 22.2451 719.918 Q27.9743 713.457 40.1964 713.457 Q52.4822 713.457 58.2432 719.95 Q64.0042 726.443 64.0042 740.192 L64.0042 753.401 L16.4842 753.401 Z" fill="#000000" fill-rule="nonzero" fill-opacity="1" /><path clip-path="url(#clip940)" d="M977.605 12.096 L985.788 12.096 L985.788 72.576 L977.605 72.576 L977.605 12.096 Z" fill="#000000" fill-rule="nonzero" fill-opacity="1" /><path clip-path="url(#clip940)" d="M1039.46 45.1919 L1039.46 72.576 L1032.01 72.576 L1032.01 45.4349 Q1032.01 38.994 1029.5 35.7938 Q1026.99 32.5936 1021.96 32.5936 Q1015.93 32.5936 1012.44 36.4419 Q1008.96 40.2903 1008.96 46.9338 L1008.96 72.576 L1001.46 72.576 L1001.46 27.2059 L1008.96 27.2059 L1008.96 34.2544 Q1011.63 30.163 1015.24 28.1376 Q1018.88 26.1121 1023.62 26.1121 Q1031.44 26.1121 1035.45 30.9732 Q1039.46 35.7938 1039.46 45.1919 Z" fill="#000000" fill-rule="nonzero" fill-opacity="1" /><path clip-path="url(#clip940)" d="M1084.18 34.0924 L1084.18 9.54393 L1091.64 9.54393 L1091.64 72.576 L1084.18 72.576 L1084.18 65.7705 Q1081.83 69.8214 1078.23 71.8063 Q1074.66 73.7508 1069.64 73.7508 Q1061.42 73.7508 1056.23 67.1883 Q1051.09 60.6258 1051.09 49.9314 Q1051.09 39.2371 1056.23 32.6746 Q1061.42 26.1121 1069.64 26.1121 Q1074.66 26.1121 1078.23 28.0971 Q1081.83 30.0415 1084.18 34.0924 M1058.78 49.9314 Q1058.78 58.1548 1062.15 62.8538 Q1065.55 67.5124 1071.46 67.5124 Q1077.38 67.5124 1080.78 62.8538 Q1084.18 58.1548 1084.18 49.9314 Q1084.18 41.7081 1080.78 37.0496 Q1077.38 32.3505 1071.46 32.3505 Q1065.55 32.3505 1062.15 37.0496 Q1058.78 41.7081 1058.78 49.9314 Z" fill="#000000" fill-rule="nonzero" fill-opacity="1" /><path clip-path="url(#clip940)" d="M1106.99 27.2059 L1114.44 27.2059 L1114.44 72.576 L1106.99 72.576 L1106.99 27.2059 M1106.99 9.54393 L1114.44 9.54393 L1114.44 18.9825 L1106.99 18.9825 L1106.99 9.54393 Z" fill="#000000" fill-rule="nonzero" fill-opacity="1" /><path clip-path="url(#clip940)" d="M1124.69 27.2059 L1132.59 27.2059 L1146.77 65.2844 L1160.95 27.2059 L1168.85 27.2059 L1151.83 72.576 L1141.71 72.576 L1124.69 27.2059 Z" fill="#000000" fill-rule="nonzero" fill-opacity="1" /><path clip-path="url(#clip940)" d="M1179.14 27.2059 L1186.59 27.2059 L1186.59 72.576 L1179.14 72.576 L1179.14 27.2059 M1179.14 9.54393 L1186.59 9.54393 L1186.59 18.9825 L1179.14 18.9825 L1179.14 9.54393 Z" fill="#000000" fill-rule="nonzero" fill-opacity="1" /><path clip-path="url(#clip940)" d="M1232.04 34.0924 L1232.04 9.54393 L1239.5 9.54393 L1239.5 72.576 L1232.04 72.576 L1232.04 65.7705 Q1229.69 69.8214 1226.09 71.8063 Q1222.52 73.7508 1217.5 73.7508 Q1209.28 73.7508 1204.09 67.1883 Q1198.95 60.6258 1198.95 49.9314 Q1198.95 39.2371 1204.09 32.6746 Q1209.28 26.1121 1217.5 26.1121 Q1222.52 26.1121 1226.09 28.0971 Q1229.69 30.0415 1232.04 34.0924 M1206.64 49.9314 Q1206.64 58.1548 1210.01 62.8538 Q1213.41 67.5124 1219.32 67.5124 Q1225.24 67.5124 1228.64 62.8538 Q1232.04 58.1548 1232.04 49.9314 Q1232.04 41.7081 1228.64 37.0496 Q1225.24 32.3505 1219.32 32.3505 Q1213.41 32.3505 1210.01 37.0496 Q1206.64 41.7081 1206.64 49.9314 Z" fill="#000000" fill-rule="nonzero" fill-opacity="1" /><path clip-path="url(#clip940)" d="M1254.08 54.671 L1254.08 27.2059 L1261.53 27.2059 L1261.53 54.3874 Q1261.53 60.8284 1264.04 64.0691 Q1266.56 67.2693 1271.58 67.2693 Q1277.61 67.2693 1281.1 63.421 Q1284.62 59.5726 1284.62 52.9291 L1284.62 27.2059 L1292.08 27.2059 L1292.08 72.576 L1284.62 72.576 L1284.62 65.6084 Q1281.91 69.7404 1278.3 71.7658 Q1274.74 73.7508 1270 73.7508 Q1262.18 73.7508 1258.13 68.8897 Q1254.08 64.0286 1254.08 54.671 M1272.83 26.1121 L1272.83 26.1121 Z" fill="#000000" fill-rule="nonzero" fill-opacity="1" /><path clip-path="url(#clip940)" d="M1328.05 49.7694 Q1319.01 49.7694 1315.53 51.8354 Q1312.05 53.9013 1312.05 58.8839 Q1312.05 62.8538 1314.64 65.2034 Q1317.27 67.5124 1321.77 67.5124 Q1327.97 67.5124 1331.69 63.1374 Q1335.46 58.7219 1335.46 51.4303 L1335.46 49.7694 L1328.05 49.7694 M1342.92 46.6907 L1342.92 72.576 L1335.46 72.576 L1335.46 65.6895 Q1332.91 69.8214 1329.1 71.8063 Q1325.29 73.7508 1319.78 73.7508 Q1312.82 73.7508 1308.69 69.8619 Q1304.59 65.9325 1304.59 59.3701 Q1304.59 51.7138 1309.7 47.825 Q1314.84 43.9361 1325.01 43.9361 L1335.46 43.9361 L1335.46 43.2069 Q1335.46 38.0623 1332.06 35.2672 Q1328.7 32.4315 1322.58 32.4315 Q1318.69 32.4315 1315 33.3632 Q1311.32 34.295 1307.92 36.1584 L1307.92 29.2718 Q1312.01 27.692 1315.86 26.9223 Q1319.7 26.1121 1323.35 26.1121 Q1333.19 26.1121 1338.05 31.2163 Q1342.92 36.3204 1342.92 46.6907 Z" fill="#000000" fill-rule="nonzero" fill-opacity="1" /><path clip-path="url(#clip940)" d="M1358.27 9.54393 L1365.72 9.54393 L1365.72 72.576 L1358.27 72.576 L1358.27 9.54393 Z" fill="#000000" fill-rule="nonzero" fill-opacity="1" /><path clip-path="url(#clip940)" d="M1415.79 65.6895 L1444.35 65.6895 L1444.35 72.576 L1405.95 72.576 L1405.95 65.6895 Q1410.61 60.8689 1418.63 52.7671 Q1426.69 44.6248 1428.75 42.2752 Q1432.68 37.8598 1434.22 34.8216 Q1435.8 31.7429 1435.8 28.7857 Q1435.8 23.9651 1432.4 20.927 Q1429.04 17.8888 1423.61 17.8888 Q1419.76 17.8888 1415.47 19.2256 Q1411.21 20.5624 1406.35 23.2765 L1406.35 15.0127 Q1411.29 13.0277 1415.59 12.015 Q1419.88 11.0023 1423.45 11.0023 Q1432.85 11.0023 1438.44 15.7013 Q1444.03 20.4004 1444.03 28.2591 Q1444.03 31.9859 1442.61 35.3482 Q1441.23 38.6699 1437.54 43.2069 Q1436.53 44.3817 1431.1 50.0125 Q1425.68 55.6027 1415.79 65.6895 Z" fill="#000000" fill-rule="nonzero" fill-opacity="1" /><path clip-path="url(#clip940)" d="M1461.61 12.096 L1493.73 12.096 L1493.73 18.9825 L1469.1 18.9825 L1469.1 33.8088 Q1470.88 33.2012 1472.67 32.9176 Q1474.45 32.5936 1476.23 32.5936 Q1486.36 32.5936 1492.27 38.1433 Q1498.19 43.6931 1498.19 53.1722 Q1498.19 62.9348 1492.11 68.3631 Q1486.03 73.7508 1474.97 73.7508 Q1471.17 73.7508 1467.2 73.1026 Q1463.27 72.4545 1459.05 71.1582 L1459.05 62.9348 Q1462.7 64.9198 1466.59 65.892 Q1470.48 66.8642 1474.81 66.8642 Q1481.82 66.8642 1485.91 63.1779 Q1490 59.4916 1490 53.1722 Q1490 46.8528 1485.91 43.1664 Q1481.82 39.4801 1474.81 39.4801 Q1471.53 39.4801 1468.25 40.2093 Q1465.01 40.9384 1461.61 42.4778 L1461.61 12.096 Z" fill="#000000" fill-rule="nonzero" fill-opacity="1" /><path clip-path="url(#clip942)" d="M289.305 1251.88 L424.818 1323.12 L560.331 1358.54 L695.844 1379.36 L831.357 1380.85 L966.87 1377.21 L1102.38 1386.4 L1111.02 1373.21 L1237.9 1383.41 L1373.41 1371.22 L1508.92 1363.76 L1644.43 1347.09 L1779.95 1360.13 L1915.46 1356.46 L2050.97 1354.13 L2186.49 1341.26 L2186.49 160.256 L2050.97 565.475 L1915.46 807.426 L1779.95 885.222 L1644.43 1064.77 L1508.92 1113.4 L1373.41 1176.93 L1237.9 1233.26 L1111.02 1254 L1102.38 1264.24 L966.87 1269.56 L831.357 1288.09 L695.844 1268.22 L560.331 1242.63 L424.818 1175.79 L289.305 996.528  Z" fill="#009af9" fill-rule="evenodd" fill-opacity="0.5"/>
<polyline clip-path="url(#clip942)" style="stroke:#009af9; stroke-linecap:round; stroke-linejoin:round; stroke-width:4; stroke-opacity:1; fill:none" points="289.305,1153.69 424.818,1252.59 560.331,1302.94 695.844,1325.69 831.357,1329.77 966.87,1329.88 1102.38,1324.72 1111.02,1325.23 1237.9,1313.01 1373.41,1306.39 1508.92,1280.26 1644.43,1275.24 1779.95,1260.6 1915.46,1244.78 2050.97,1223.54 2186.49,1212.49 "/>
<circle clip-path="url(#clip942)" cx="289.305" cy="1218.76" r="14.4" fill="#e26f46" fill-rule="evenodd" fill-opacity="1" stroke="#000000" stroke-opacity="1" stroke-width="3.2"/>
<circle clip-path="url(#clip942)" cx="364.006" cy="1189.2" r="14.4" fill="#e26f46" fill-rule="evenodd" fill-opacity="1" stroke="#000000" stroke-opacity="1" stroke-width="3.2"/>
<circle clip-path="url(#clip942)" cx="438.708" cy="1201.39" r="14.4" fill="#e26f46" fill-rule="evenodd" fill-opacity="1" stroke="#000000" stroke-opacity="1" stroke-width="3.2"/>
<circle clip-path="url(#clip942)" cx="513.409" cy="1341.12" r="14.4" fill="#e26f46" fill-rule="evenodd" fill-opacity="1" stroke="#000000" stroke-opacity="1" stroke-width="3.2"/>
<circle clip-path="url(#clip942)" cx="588.111" cy="1295.53" r="14.4" fill="#e26f46" fill-rule="evenodd" fill-opacity="1" stroke="#000000" stroke-opacity="1" stroke-width="3.2"/>
<circle clip-path="url(#clip942)" cx="662.812" cy="1347.21" r="14.4" fill="#e26f46" fill-rule="evenodd" fill-opacity="1" stroke="#000000" stroke-opacity="1" stroke-width="3.2"/>
<circle clip-path="url(#clip942)" cx="737.514" cy="1297.8" r="14.4" fill="#e26f46" fill-rule="evenodd" fill-opacity="1" stroke="#000000" stroke-opacity="1" stroke-width="3.2"/>
<circle clip-path="url(#clip942)" cx="812.215" cy="1336.09" r="14.4" fill="#e26f46" fill-rule="evenodd" fill-opacity="1" stroke="#000000" stroke-opacity="1" stroke-width="3.2"/>
<circle clip-path="url(#clip942)" cx="886.917" cy="1337.28" r="14.4" fill="#e26f46" fill-rule="evenodd" fill-opacity="1" stroke="#000000" stroke-opacity="1" stroke-width="3.2"/>
<circle clip-path="url(#clip942)" cx="961.618" cy="1335.84" r="14.4" fill="#e26f46" fill-rule="evenodd" fill-opacity="1" stroke="#000000" stroke-opacity="1" stroke-width="3.2"/>
<circle clip-path="url(#clip942)" cx="1036.32" cy="1341.98" r="14.4" fill="#e26f46" fill-rule="evenodd" fill-opacity="1" stroke="#000000" stroke-opacity="1" stroke-width="3.2"/>
<circle clip-path="url(#clip942)" cx="1111.02" cy="1306.66" r="14.4" fill="#e26f46" fill-rule="evenodd" fill-opacity="1" stroke="#000000" stroke-opacity="1" stroke-width="3.2"/>
<polyline clip-path="url(#clip942)" style="stroke:#000000; stroke-linecap:round; stroke-linejoin:round; stroke-width:4; stroke-opacity:1; fill:none" points="1111.02,2722.89 1111.02,-1176.24 "/>
<path clip-path="url(#clip940)" d="M299.423 374.156 L926.24 374.156 L926.24 166.796 L299.423 166.796  Z" fill="#ffffff" fill-rule="evenodd" fill-opacity="1"/>
<polyline clip-path="url(#clip940)" style="stroke:#000000; stroke-linecap:round; stroke-linejoin:round; stroke-width:4; stroke-opacity:1; fill:none" points="299.423,374.156 926.24,374.156 926.24,166.796 299.423,166.796 299.423,374.156 "/>
<polyline clip-path="url(#clip940)" style="stroke:#009af9; stroke-linecap:round; stroke-linejoin:round; stroke-width:4; stroke-opacity:1; fill:none" points="321.768,218.636 455.835,218.636 "/>
<path clip-path="url(#clip940)" d="M500.425 202.49 L500.425 207.05 Q497.763 205.777 495.402 205.152 Q493.041 204.527 490.842 204.527 Q487.022 204.527 484.939 206.008 Q482.879 207.49 482.879 210.221 Q482.879 212.513 484.245 213.694 Q485.633 214.851 489.476 215.569 L492.3 216.147 Q497.532 217.143 500.008 219.666 Q502.508 222.166 502.508 226.379 Q502.508 231.402 499.129 233.994 Q495.772 236.587 489.268 236.587 Q486.814 236.587 484.036 236.031 Q481.282 235.476 478.319 234.388 L478.319 229.573 Q481.166 231.17 483.897 231.981 Q486.629 232.791 489.268 232.791 Q493.272 232.791 495.448 231.217 Q497.624 229.643 497.624 226.726 Q497.624 224.18 496.05 222.744 Q494.499 221.309 490.934 220.592 L488.087 220.036 Q482.856 218.995 480.518 216.772 Q478.18 214.55 478.18 210.592 Q478.18 206.008 481.397 203.37 Q484.638 200.731 490.309 200.731 Q492.74 200.731 495.263 201.171 Q497.786 201.61 500.425 202.49 Z" fill="#000000" fill-rule="nonzero" fill-opacity="1" /><path clip-path="url(#clip940)" d="M509.8 201.356 L514.476 201.356 L514.476 231.981 L531.304 231.981 L531.304 235.916 L509.8 235.916 L509.8 201.356 Z" fill="#000000" fill-rule="nonzero" fill-opacity="1" /><path clip-path="url(#clip940)" d="M540.888 205.198 L540.888 232.073 L546.536 232.073 Q553.689 232.073 556.999 228.832 Q560.332 225.592 560.332 218.601 Q560.332 211.657 556.999 208.439 Q553.689 205.198 546.536 205.198 L540.888 205.198 M536.212 201.356 L545.818 201.356 Q555.865 201.356 560.564 205.546 Q565.263 209.712 565.263 218.601 Q565.263 227.536 560.54 231.726 Q555.818 235.916 545.818 235.916 L536.212 235.916 L536.212 201.356 Z" fill="#000000" fill-rule="nonzero" fill-opacity="1" /><path clip-path="url(#clip940)" d="M607.786 214.967 Q609.383 212.096 611.605 210.731 Q613.827 209.365 616.836 209.365 Q620.887 209.365 623.086 212.212 Q625.285 215.036 625.285 220.268 L625.285 235.916 L621.003 235.916 L621.003 220.407 Q621.003 216.68 619.684 214.874 Q618.364 213.069 615.656 213.069 Q612.346 213.069 610.424 215.268 Q608.503 217.467 608.503 221.263 L608.503 235.916 L604.221 235.916 L604.221 220.407 Q604.221 216.657 602.901 214.874 Q601.582 213.069 598.827 213.069 Q595.563 213.069 593.642 215.291 Q591.721 217.49 591.721 221.263 L591.721 235.916 L587.438 235.916 L587.438 209.99 L591.721 209.99 L591.721 214.018 Q593.179 211.633 595.216 210.499 Q597.253 209.365 600.054 209.365 Q602.878 209.365 604.846 210.8 Q606.836 212.235 607.786 214.967 Z" fill="#000000" fill-rule="nonzero" fill-opacity="1" /><path clip-path="url(#clip940)" d="M643.827 212.976 Q640.401 212.976 638.41 215.661 Q636.42 218.323 636.42 222.976 Q636.42 227.629 638.387 230.314 Q640.378 232.976 643.827 232.976 Q647.23 232.976 649.221 230.291 Q651.211 227.606 651.211 222.976 Q651.211 218.37 649.221 215.684 Q647.23 212.976 643.827 212.976 M643.827 209.365 Q649.383 209.365 652.554 212.976 Q655.725 216.587 655.725 222.976 Q655.725 229.342 652.554 232.976 Q649.383 236.587 643.827 236.587 Q638.248 236.587 635.077 232.976 Q631.929 229.342 631.929 222.976 Q631.929 216.587 635.077 212.976 Q638.248 209.365 643.827 209.365 Z" fill="#000000" fill-rule="nonzero" fill-opacity="1" /><path clip-path="url(#clip940)" d="M679.845 213.925 L679.845 199.897 L684.105 199.897 L684.105 235.916 L679.845 235.916 L679.845 232.027 Q678.503 234.342 676.443 235.476 Q674.406 236.587 671.535 236.587 Q666.836 236.587 663.873 232.837 Q660.933 229.087 660.933 222.976 Q660.933 216.865 663.873 213.115 Q666.836 209.365 671.535 209.365 Q674.406 209.365 676.443 210.499 Q678.503 211.61 679.845 213.925 M665.332 222.976 Q665.332 227.675 667.253 230.36 Q669.197 233.022 672.577 233.022 Q675.956 233.022 677.901 230.36 Q679.845 227.675 679.845 222.976 Q679.845 218.277 677.901 215.615 Q675.956 212.93 672.577 212.93 Q669.197 212.93 667.253 215.615 Q665.332 218.277 665.332 222.976 Z" fill="#000000" fill-rule="nonzero" fill-opacity="1" /><path clip-path="url(#clip940)" d="M715.053 221.888 L715.053 223.971 L695.47 223.971 Q695.748 228.369 698.109 230.684 Q700.493 232.976 704.729 232.976 Q707.183 232.976 709.475 232.374 Q711.79 231.772 714.058 230.569 L714.058 234.596 Q711.766 235.568 709.359 236.078 Q706.952 236.587 704.475 236.587 Q698.271 236.587 694.637 232.976 Q691.026 229.365 691.026 223.207 Q691.026 216.842 694.452 213.115 Q697.901 209.365 703.734 209.365 Q708.966 209.365 711.998 212.745 Q715.053 216.101 715.053 221.888 M710.794 220.638 Q710.748 217.143 708.827 215.059 Q706.929 212.976 703.78 212.976 Q700.216 212.976 698.063 214.99 Q695.933 217.004 695.609 220.661 L710.794 220.638 Z" fill="#000000" fill-rule="nonzero" fill-opacity="1" /><path clip-path="url(#clip940)" d="M722.044 199.897 L726.303 199.897 L726.303 235.916 L722.044 235.916 L722.044 199.897 Z" fill="#000000" fill-rule="nonzero" fill-opacity="1" /><circle clip-path="url(#clip940)" cx="388.801" cy="270.476" r="20.48" fill="#e26f46" fill-rule="evenodd" fill-opacity="1" stroke="#000000" stroke-opacity="1" stroke-width="4.55111"/>
<path clip-path="url(#clip940)" d="M494.198 256.367 Q489.106 256.367 486.096 260.163 Q483.11 263.96 483.11 270.51 Q483.11 277.038 486.096 280.834 Q489.106 284.631 494.198 284.631 Q499.291 284.631 502.254 280.834 Q505.24 277.038 505.24 270.51 Q505.24 263.96 502.254 260.163 Q499.291 256.367 494.198 256.367 M494.198 252.571 Q501.467 252.571 505.818 257.455 Q510.17 262.316 510.17 270.51 Q510.17 278.682 505.818 283.566 Q501.467 288.427 494.198 288.427 Q486.907 288.427 482.532 283.566 Q478.18 278.705 478.18 270.51 Q478.18 262.316 482.532 257.455 Q486.907 252.571 494.198 252.571 Z" fill="#000000" fill-rule="nonzero" fill-opacity="1" /><path clip-path="url(#clip940)" d="M535.911 274.816 Q535.911 270.117 533.966 267.455 Q532.045 264.77 528.666 264.77 Q525.286 264.77 523.342 267.455 Q521.42 270.117 521.42 274.816 Q521.42 279.515 523.342 282.2 Q525.286 284.862 528.666 284.862 Q532.045 284.862 533.966 282.2 Q535.911 279.515 535.911 274.816 M521.42 265.765 Q522.763 263.45 524.8 262.339 Q526.86 261.205 529.707 261.205 Q534.429 261.205 537.369 264.955 Q540.332 268.705 540.332 274.816 Q540.332 280.927 537.369 284.677 Q534.429 288.427 529.707 288.427 Q526.86 288.427 524.8 287.316 Q522.763 286.182 521.42 283.867 L521.42 287.756 L517.138 287.756 L517.138 251.737 L521.42 251.737 L521.42 265.765 Z" fill="#000000" fill-rule="nonzero" fill-opacity="1" /><path clip-path="url(#clip940)" d="M563.92 262.594 L563.92 266.622 Q562.114 265.696 560.17 265.233 Q558.226 264.77 556.142 264.77 Q552.971 264.77 551.374 265.742 Q549.8 266.714 549.8 268.659 Q549.8 270.14 550.934 270.997 Q552.068 271.83 555.494 272.594 L556.952 272.918 Q561.489 273.89 563.388 275.672 Q565.309 277.432 565.309 280.603 Q565.309 284.214 562.439 286.321 Q559.591 288.427 554.591 288.427 Q552.508 288.427 550.24 288.01 Q547.994 287.617 545.494 286.807 L545.494 282.409 Q547.855 283.635 550.147 284.26 Q552.439 284.862 554.684 284.862 Q557.693 284.862 559.314 283.844 Q560.934 282.802 560.934 280.927 Q560.934 279.191 559.753 278.265 Q558.596 277.339 554.638 276.483 L553.156 276.135 Q549.198 275.302 547.439 273.589 Q545.679 271.853 545.679 268.844 Q545.679 265.186 548.272 263.196 Q550.865 261.205 555.633 261.205 Q557.994 261.205 560.077 261.552 Q562.161 261.899 563.92 262.594 Z" fill="#000000" fill-rule="nonzero" fill-opacity="1" /><path clip-path="url(#clip940)" d="M594.267 273.728 L594.267 275.811 L574.684 275.811 Q574.962 280.209 577.323 282.524 Q579.707 284.816 583.943 284.816 Q586.397 284.816 588.688 284.214 Q591.003 283.612 593.272 282.409 L593.272 286.436 Q590.98 287.408 588.573 287.918 Q586.165 288.427 583.688 288.427 Q577.485 288.427 573.851 284.816 Q570.239 281.205 570.239 275.047 Q570.239 268.682 573.665 264.955 Q577.114 261.205 582.948 261.205 Q588.179 261.205 591.212 264.585 Q594.267 267.941 594.267 273.728 M590.008 272.478 Q589.962 268.983 588.04 266.899 Q586.142 264.816 582.994 264.816 Q579.429 264.816 577.276 266.83 Q575.147 268.844 574.823 272.501 L590.008 272.478 Z" fill="#000000" fill-rule="nonzero" fill-opacity="1" /><path clip-path="url(#clip940)" d="M616.281 265.811 Q615.563 265.395 614.707 265.21 Q613.873 265.001 612.855 265.001 Q609.244 265.001 607.299 267.362 Q605.378 269.7 605.378 274.098 L605.378 287.756 L601.096 287.756 L601.096 261.83 L605.378 261.83 L605.378 265.858 Q606.721 263.497 608.873 262.362 Q611.026 261.205 614.105 261.205 Q614.545 261.205 615.077 261.274 Q615.61 261.321 616.258 261.436 L616.281 265.811 Z" fill="#000000" fill-rule="nonzero" fill-opacity="1" /><path clip-path="url(#clip940)" d="M617.693 261.83 L622.207 261.83 L630.309 283.589 L638.41 261.83 L642.924 261.83 L633.202 287.756 L627.415 287.756 L617.693 261.83 Z" fill="#000000" fill-rule="nonzero" fill-opacity="1" /><path clip-path="url(#clip940)" d="M660.586 274.723 Q655.424 274.723 653.433 275.904 Q651.443 277.084 651.443 279.932 Q651.443 282.2 652.924 283.543 Q654.429 284.862 656.998 284.862 Q660.54 284.862 662.67 282.362 Q664.822 279.839 664.822 275.672 L664.822 274.723 L660.586 274.723 M669.082 272.964 L669.082 287.756 L664.822 287.756 L664.822 283.821 Q663.364 286.182 661.188 287.316 Q659.012 288.427 655.864 288.427 Q651.883 288.427 649.521 286.205 Q647.183 283.959 647.183 280.209 Q647.183 275.834 650.1 273.612 Q653.04 271.39 658.85 271.39 L664.822 271.39 L664.822 270.973 Q664.822 268.034 662.878 266.436 Q660.957 264.816 657.461 264.816 Q655.239 264.816 653.133 265.348 Q651.026 265.881 649.082 266.946 L649.082 263.01 Q651.42 262.108 653.619 261.668 Q655.818 261.205 657.901 261.205 Q663.526 261.205 666.304 264.122 Q669.082 267.038 669.082 272.964 Z" fill="#000000" fill-rule="nonzero" fill-opacity="1" /><path clip-path="url(#clip940)" d="M682.068 254.469 L682.068 261.83 L690.841 261.83 L690.841 265.14 L682.068 265.14 L682.068 279.214 Q682.068 282.385 682.924 283.288 Q683.804 284.191 686.466 284.191 L690.841 284.191 L690.841 287.756 L686.466 287.756 Q681.535 287.756 679.66 285.927 Q677.785 284.075 677.785 279.214 L677.785 265.14 L674.66 265.14 L674.66 261.83 L677.785 261.83 L677.785 254.469 L682.068 254.469 Z" fill="#000000" fill-rule="nonzero" fill-opacity="1" /><path clip-path="url(#clip940)" d="M696.442 261.83 L700.702 261.83 L700.702 287.756 L696.442 287.756 L696.442 261.83 M696.442 251.737 L700.702 251.737 L700.702 257.131 L696.442 257.131 L696.442 251.737 Z" fill="#000000" fill-rule="nonzero" fill-opacity="1" /><path clip-path="url(#clip940)" d="M719.66 264.816 Q716.234 264.816 714.243 267.501 Q712.253 270.163 712.253 274.816 Q712.253 279.469 714.22 282.154 Q716.211 284.816 719.66 284.816 Q723.063 284.816 725.053 282.131 Q727.044 279.446 727.044 274.816 Q727.044 270.21 725.053 267.524 Q723.063 264.816 719.66 264.816 M719.66 261.205 Q725.215 261.205 728.387 264.816 Q731.558 268.427 731.558 274.816 Q731.558 281.182 728.387 284.816 Q725.215 288.427 719.66 288.427 Q714.081 288.427 710.91 284.816 Q707.762 281.182 707.762 274.816 Q707.762 268.427 710.91 264.816 Q714.081 261.205 719.66 261.205 Z" fill="#000000" fill-rule="nonzero" fill-opacity="1" /><path clip-path="url(#clip940)" d="M760.169 272.108 L760.169 287.756 L755.91 287.756 L755.91 272.247 Q755.91 268.566 754.475 266.737 Q753.039 264.909 750.169 264.909 Q746.72 264.909 744.729 267.108 Q742.739 269.307 742.739 273.103 L742.739 287.756 L738.456 287.756 L738.456 261.83 L742.739 261.83 L742.739 265.858 Q744.266 263.52 746.326 262.362 Q748.41 261.205 751.118 261.205 Q755.586 261.205 757.877 263.983 Q760.169 266.737 760.169 272.108 Z" fill="#000000" fill-rule="nonzero" fill-opacity="1" /><path clip-path="url(#clip940)" d="M785.192 262.594 L785.192 266.622 Q783.386 265.696 781.442 265.233 Q779.498 264.77 777.414 264.77 Q774.243 264.77 772.646 265.742 Q771.072 266.714 771.072 268.659 Q771.072 270.14 772.206 270.997 Q773.34 271.83 776.766 272.594 L778.224 272.918 Q782.761 273.89 784.66 275.672 Q786.581 277.432 786.581 280.603 Q786.581 284.214 783.711 286.321 Q780.863 288.427 775.863 288.427 Q773.78 288.427 771.512 288.01 Q769.266 287.617 766.766 286.807 L766.766 282.409 Q769.127 283.635 771.419 284.26 Q773.711 284.862 775.956 284.862 Q778.965 284.862 780.586 283.844 Q782.206 282.802 782.206 280.927 Q782.206 279.191 781.025 278.265 Q779.868 277.339 775.91 276.483 L774.428 276.135 Q770.47 275.302 768.711 273.589 Q766.951 271.853 766.951 268.844 Q766.951 265.186 769.544 263.196 Q772.137 261.205 776.905 261.205 Q779.266 261.205 781.349 261.552 Q783.433 261.899 785.192 262.594 Z" fill="#000000" fill-rule="nonzero" fill-opacity="1" /><polyline clip-path="url(#clip940)" style="stroke:#000000; stroke-linecap:round; stroke-linejoin:round; stroke-width:4; stroke-opacity:1; fill:none" points="321.768,322.316 455.835,322.316 "/>
<path clip-path="url(#clip940)" d="M478.18 303.577 L482.439 303.577 L482.439 339.596 L478.18 339.596 L478.18 303.577 Z" fill="#000000" fill-rule="nonzero" fill-opacity="1" /><path clip-path="url(#clip940)" d="M503.133 326.563 Q497.971 326.563 495.981 327.744 Q493.99 328.924 493.99 331.772 Q493.99 334.04 495.471 335.383 Q496.976 336.702 499.545 336.702 Q503.087 336.702 505.217 334.202 Q507.369 331.679 507.369 327.512 L507.369 326.563 L503.133 326.563 M511.629 324.804 L511.629 339.596 L507.369 339.596 L507.369 335.661 Q505.911 338.022 503.735 339.156 Q501.559 340.267 498.411 340.267 Q494.43 340.267 492.069 338.045 Q489.731 335.799 489.731 332.049 Q489.731 327.674 492.647 325.452 Q495.587 323.23 501.397 323.23 L507.369 323.23 L507.369 322.813 Q507.369 319.874 505.425 318.276 Q503.504 316.656 500.008 316.656 Q497.786 316.656 495.68 317.188 Q493.573 317.721 491.629 318.786 L491.629 314.85 Q493.967 313.948 496.166 313.508 Q498.365 313.045 500.448 313.045 Q506.073 313.045 508.851 315.962 Q511.629 318.878 511.629 324.804 Z" fill="#000000" fill-rule="nonzero" fill-opacity="1" /><path clip-path="url(#clip940)" d="M536.929 314.434 L536.929 318.462 Q535.124 317.536 533.179 317.073 Q531.235 316.61 529.152 316.61 Q525.98 316.61 524.383 317.582 Q522.809 318.554 522.809 320.499 Q522.809 321.98 523.943 322.837 Q525.078 323.67 528.504 324.434 L529.962 324.758 Q534.499 325.73 536.397 327.512 Q538.318 329.272 538.318 332.443 Q538.318 336.054 535.448 338.161 Q532.601 340.267 527.601 340.267 Q525.517 340.267 523.249 339.85 Q521.004 339.457 518.504 338.647 L518.504 334.249 Q520.865 335.475 523.156 336.1 Q525.448 336.702 527.693 336.702 Q530.703 336.702 532.323 335.684 Q533.943 334.642 533.943 332.767 Q533.943 331.031 532.763 330.105 Q531.605 329.179 527.647 328.323 L526.166 327.975 Q522.207 327.142 520.448 325.429 Q518.689 323.693 518.689 320.684 Q518.689 317.026 521.281 315.036 Q523.874 313.045 528.642 313.045 Q531.004 313.045 533.087 313.392 Q535.17 313.739 536.929 314.434 Z" fill="#000000" fill-rule="nonzero" fill-opacity="1" /><path clip-path="url(#clip940)" d="M549.314 306.309 L549.314 313.67 L558.087 313.67 L558.087 316.98 L549.314 316.98 L549.314 331.054 Q549.314 334.225 550.17 335.128 Q551.05 336.031 553.712 336.031 L558.087 336.031 L558.087 339.596 L553.712 339.596 Q548.781 339.596 546.906 337.767 Q545.031 335.915 545.031 331.054 L545.031 316.98 L541.906 316.98 L541.906 313.67 L545.031 313.67 L545.031 306.309 L549.314 306.309 Z" fill="#000000" fill-rule="nonzero" fill-opacity="1" /><path clip-path="url(#clip940)" d="M598.943 318.647 Q600.54 315.776 602.762 314.411 Q604.985 313.045 607.994 313.045 Q612.045 313.045 614.244 315.892 Q616.443 318.716 616.443 323.948 L616.443 339.596 L612.161 339.596 L612.161 324.087 Q612.161 320.36 610.841 318.554 Q609.522 316.749 606.813 316.749 Q603.503 316.749 601.582 318.948 Q599.661 321.147 599.661 324.943 L599.661 339.596 L595.378 339.596 L595.378 324.087 Q595.378 320.337 594.059 318.554 Q592.739 316.749 589.985 316.749 Q586.721 316.749 584.8 318.971 Q582.878 321.17 582.878 324.943 L582.878 339.596 L578.596 339.596 L578.596 313.67 L582.878 313.67 L582.878 317.698 Q584.337 315.313 586.374 314.179 Q588.411 313.045 591.212 313.045 Q594.036 313.045 596.003 314.48 Q597.994 315.915 598.943 318.647 Z" fill="#000000" fill-rule="nonzero" fill-opacity="1" /><path clip-path="url(#clip940)" d="M647.114 325.568 L647.114 327.651 L627.531 327.651 Q627.809 332.049 630.17 334.364 Q632.554 336.656 636.79 336.656 Q639.244 336.656 641.535 336.054 Q643.85 335.452 646.119 334.249 L646.119 338.276 Q643.827 339.248 641.42 339.758 Q639.012 340.267 636.535 340.267 Q630.332 340.267 626.697 336.656 Q623.086 333.045 623.086 326.887 Q623.086 320.522 626.512 316.795 Q629.961 313.045 635.795 313.045 Q641.026 313.045 644.058 316.425 Q647.114 319.781 647.114 325.568 M642.855 324.318 Q642.809 320.823 640.887 318.739 Q638.989 316.656 635.841 316.656 Q632.276 316.656 630.123 318.67 Q627.994 320.684 627.67 324.341 L642.855 324.318 Z" fill="#000000" fill-rule="nonzero" fill-opacity="1" /><path clip-path="url(#clip940)" d="M665.887 326.563 Q660.725 326.563 658.734 327.744 Q656.744 328.924 656.744 331.772 Q656.744 334.04 658.225 335.383 Q659.73 336.702 662.299 336.702 Q665.841 336.702 667.97 334.202 Q670.123 331.679 670.123 327.512 L670.123 326.563 L665.887 326.563 M674.382 324.804 L674.382 339.596 L670.123 339.596 L670.123 335.661 Q668.665 338.022 666.489 339.156 Q664.313 340.267 661.165 340.267 Q657.183 340.267 654.822 338.045 Q652.484 335.799 652.484 332.049 Q652.484 327.674 655.401 325.452 Q658.341 323.23 664.151 323.23 L670.123 323.23 L670.123 322.813 Q670.123 319.874 668.179 318.276 Q666.257 316.656 662.762 316.656 Q660.54 316.656 658.433 317.188 Q656.327 317.721 654.383 318.786 L654.383 314.85 Q656.72 313.948 658.92 313.508 Q661.119 313.045 663.202 313.045 Q668.827 313.045 671.605 315.962 Q674.382 318.878 674.382 324.804 Z" fill="#000000" fill-rule="nonzero" fill-opacity="1" /><path clip-path="url(#clip940)" d="M699.683 314.434 L699.683 318.462 Q697.878 317.536 695.933 317.073 Q693.989 316.61 691.905 316.61 Q688.734 316.61 687.137 317.582 Q685.563 318.554 685.563 320.499 Q685.563 321.98 686.697 322.837 Q687.831 323.67 691.257 324.434 L692.716 324.758 Q697.253 325.73 699.151 327.512 Q701.072 329.272 701.072 332.443 Q701.072 336.054 698.202 338.161 Q695.355 340.267 690.355 340.267 Q688.271 340.267 686.003 339.85 Q683.757 339.457 681.257 338.647 L681.257 334.249 Q683.618 335.475 685.91 336.1 Q688.202 336.702 690.447 336.702 Q693.456 336.702 695.077 335.684 Q696.697 334.642 696.697 332.767 Q696.697 331.031 695.517 330.105 Q694.359 329.179 690.401 328.323 L688.919 327.975 Q684.961 327.142 683.202 325.429 Q681.443 323.693 681.443 320.684 Q681.443 317.026 684.035 315.036 Q686.628 313.045 691.396 313.045 Q693.757 313.045 695.841 313.392 Q697.924 313.739 699.683 314.434 Z" fill="#000000" fill-rule="nonzero" fill-opacity="1" /><path clip-path="url(#clip940)" d="M707.415 329.364 L707.415 313.67 L711.674 313.67 L711.674 329.202 Q711.674 332.883 713.109 334.735 Q714.544 336.563 717.415 336.563 Q720.864 336.563 722.854 334.364 Q724.868 332.165 724.868 328.369 L724.868 313.67 L729.127 313.67 L729.127 339.596 L724.868 339.596 L724.868 335.614 Q723.317 337.975 721.257 339.133 Q719.22 340.267 716.512 340.267 Q712.044 340.267 709.729 337.489 Q707.415 334.711 707.415 329.364 M718.132 313.045 L718.132 313.045 Z" fill="#000000" fill-rule="nonzero" fill-opacity="1" /><path clip-path="url(#clip940)" d="M752.924 317.651 Q752.206 317.235 751.35 317.05 Q750.516 316.841 749.498 316.841 Q745.887 316.841 743.942 319.202 Q742.021 321.54 742.021 325.938 L742.021 339.596 L737.739 339.596 L737.739 313.67 L742.021 313.67 L742.021 317.698 Q743.364 315.337 745.516 314.202 Q747.669 313.045 750.748 313.045 Q751.188 313.045 751.72 313.114 Q752.252 313.161 752.901 313.276 L752.924 317.651 Z" fill="#000000" fill-rule="nonzero" fill-opacity="1" /><path clip-path="url(#clip940)" d="M778.525 325.568 L778.525 327.651 L758.942 327.651 Q759.22 332.049 761.581 334.364 Q763.965 336.656 768.201 336.656 Q770.655 336.656 772.947 336.054 Q775.261 335.452 777.53 334.249 L777.53 338.276 Q775.238 339.248 772.831 339.758 Q770.424 340.267 767.947 340.267 Q761.743 340.267 758.109 336.656 Q754.498 333.045 754.498 326.887 Q754.498 320.522 757.924 316.795 Q761.373 313.045 767.206 313.045 Q772.437 313.045 775.47 316.425 Q778.525 319.781 778.525 325.568 M774.266 324.318 Q774.22 320.823 772.299 318.739 Q770.4 316.656 767.252 316.656 Q763.687 316.656 761.535 318.67 Q759.405 320.684 759.081 324.341 L774.266 324.318 Z" fill="#000000" fill-rule="nonzero" fill-opacity="1" /><path clip-path="url(#clip940)" d="M805.701 318.647 Q807.298 315.776 809.521 314.411 Q811.743 313.045 814.752 313.045 Q818.803 313.045 821.002 315.892 Q823.201 318.716 823.201 323.948 L823.201 339.596 L818.919 339.596 L818.919 324.087 Q818.919 320.36 817.599 318.554 Q816.28 316.749 813.571 316.749 Q810.261 316.749 808.34 318.948 Q806.419 321.147 806.419 324.943 L806.419 339.596 L802.136 339.596 L802.136 324.087 Q802.136 320.337 800.817 318.554 Q799.497 316.749 796.743 316.749 Q793.479 316.749 791.558 318.971 Q789.636 321.17 789.636 324.943 L789.636 339.596 L785.354 339.596 L785.354 313.67 L789.636 313.67 L789.636 317.698 Q791.095 315.313 793.132 314.179 Q795.169 313.045 797.97 313.045 Q800.794 313.045 802.761 314.48 Q804.752 315.915 805.701 318.647 Z" fill="#000000" fill-rule="nonzero" fill-opacity="1" /><path clip-path="url(#clip940)" d="M853.872 325.568 L853.872 327.651 L834.289 327.651 Q834.567 332.049 836.928 334.364 Q839.312 336.656 843.548 336.656 Q846.002 336.656 848.294 336.054 Q850.608 335.452 852.877 334.249 L852.877 338.276 Q850.585 339.248 848.178 339.758 Q845.77 340.267 843.294 340.267 Q837.09 340.267 833.456 336.656 Q829.845 333.045 829.845 326.887 Q829.845 320.522 833.27 316.795 Q836.719 313.045 842.553 313.045 Q847.784 313.045 850.817 316.425 Q853.872 319.781 853.872 325.568 M849.613 324.318 Q849.567 320.823 847.645 318.739 Q845.747 316.656 842.599 316.656 Q839.034 316.656 836.882 318.67 Q834.752 320.684 834.428 324.341 L849.613 324.318 Z" fill="#000000" fill-rule="nonzero" fill-opacity="1" /><path clip-path="url(#clip940)" d="M882.414 323.948 L882.414 339.596 L878.154 339.596 L878.154 324.087 Q878.154 320.406 876.719 318.577 Q875.284 316.749 872.414 316.749 Q868.965 316.749 866.974 318.948 Q864.983 321.147 864.983 324.943 L864.983 339.596 L860.701 339.596 L860.701 313.67 L864.983 313.67 L864.983 317.698 Q866.511 315.36 868.571 314.202 Q870.655 313.045 873.363 313.045 Q877.83 313.045 880.122 315.823 Q882.414 318.577 882.414 323.948 Z" fill="#000000" fill-rule="nonzero" fill-opacity="1" /><path clip-path="url(#clip940)" d="M895.122 306.309 L895.122 313.67 L903.895 313.67 L903.895 316.98 L895.122 316.98 L895.122 331.054 Q895.122 334.225 895.978 335.128 Q896.858 336.031 899.52 336.031 L903.895 336.031 L903.895 339.596 L899.52 339.596 Q894.59 339.596 892.715 337.767 Q890.84 335.915 890.84 331.054 L890.84 316.98 L887.715 316.98 L887.715 313.67 L890.84 313.67 L890.84 306.309 L895.122 306.309 Z" fill="#000000" fill-rule="nonzero" fill-opacity="1" /><polyline clip-path="url(#clip940)" style="stroke:#000000; stroke-linecap:round; stroke-linejoin:round; stroke-width:4; stroke-opacity:1; fill:none" points="2243.4,1423.18 2243.4,123.472 "/>
<polyline clip-path="url(#clip940)" style="stroke:#000000; stroke-linecap:round; stroke-linejoin:round; stroke-width:4; stroke-opacity:1; fill:none" points="2243.4,1423.18 2224.5,1423.18 "/>
<polyline clip-path="url(#clip940)" style="stroke:#000000; stroke-linecap:round; stroke-linejoin:round; stroke-width:4; stroke-opacity:1; fill:none" points="2243.4,1163.24 2224.5,1163.24 "/>
<polyline clip-path="url(#clip940)" style="stroke:#000000; stroke-linecap:round; stroke-linejoin:round; stroke-width:4; stroke-opacity:1; fill:none" points="2243.4,903.297 2224.5,903.297 "/>
<polyline clip-path="url(#clip940)" style="stroke:#000000; stroke-linecap:round; stroke-linejoin:round; stroke-width:4; stroke-opacity:1; fill:none" points="2243.4,643.355 2224.5,643.355 "/>
<polyline clip-path="url(#clip940)" style="stroke:#000000; stroke-linecap:round; stroke-linejoin:round; stroke-width:4; stroke-opacity:1; fill:none" points="2243.4,383.414 2224.5,383.414 "/>
<polyline clip-path="url(#clip940)" style="stroke:#000000; stroke-linecap:round; stroke-linejoin:round; stroke-width:4; stroke-opacity:1; fill:none" points="2243.4,123.472 2224.5,123.472 "/>
<path clip-path="url(#clip940)" d="M2291.35 1408.98 Q2287.74 1408.98 2285.91 1412.54 Q2284.1 1416.08 2284.1 1423.21 Q2284.1 1430.32 2285.91 1433.89 Q2287.74 1437.43 2291.35 1437.43 Q2294.98 1437.43 2296.79 1433.89 Q2298.61 1430.32 2298.61 1423.21 Q2298.61 1416.08 2296.79 1412.54 Q2294.98 1408.98 2291.35 1408.98 M2291.35 1405.27 Q2297.16 1405.27 2300.21 1409.88 Q2303.29 1414.46 2303.29 1423.21 Q2303.29 1431.94 2300.21 1436.55 Q2297.16 1441.13 2291.35 1441.13 Q2285.54 1441.13 2282.46 1436.55 Q2279.4 1431.94 2279.4 1423.21 Q2279.4 1414.46 2282.46 1409.88 Q2285.54 1405.27 2291.35 1405.27 Z" fill="#000000" fill-rule="nonzero" fill-opacity="1" /><path clip-path="url(#clip940)" d="M2311.51 1434.58 L2316.39 1434.58 L2316.39 1440.46 L2311.51 1440.46 L2311.51 1434.58 Z" fill="#000000" fill-rule="nonzero" fill-opacity="1" /><path clip-path="url(#clip940)" d="M2336.58 1408.98 Q2332.97 1408.98 2331.14 1412.54 Q2329.33 1416.08 2329.33 1423.21 Q2329.33 1430.32 2331.14 1433.89 Q2332.97 1437.43 2336.58 1437.43 Q2340.21 1437.43 2342.02 1433.89 Q2343.85 1430.32 2343.85 1423.21 Q2343.85 1416.08 2342.02 1412.54 Q2340.21 1408.98 2336.58 1408.98 M2336.58 1405.27 Q2342.39 1405.27 2345.44 1409.88 Q2348.52 1414.46 2348.52 1423.21 Q2348.52 1431.94 2345.44 1436.55 Q2342.39 1441.13 2336.58 1441.13 Q2330.77 1441.13 2327.69 1436.55 Q2324.63 1431.94 2324.63 1423.21 Q2324.63 1414.46 2327.69 1409.88 Q2330.77 1405.27 2336.58 1405.27 Z" fill="#000000" fill-rule="nonzero" fill-opacity="1" /><path clip-path="url(#clip940)" d="M2291.35 1149.04 Q2287.74 1149.04 2285.91 1152.6 Q2284.1 1156.14 2284.1 1163.27 Q2284.1 1170.38 2285.91 1173.94 Q2287.74 1177.49 2291.35 1177.49 Q2294.98 1177.49 2296.79 1173.94 Q2298.61 1170.38 2298.61 1163.27 Q2298.61 1156.14 2296.79 1152.6 Q2294.98 1149.04 2291.35 1149.04 M2291.35 1145.33 Q2297.16 1145.33 2300.21 1149.94 Q2303.29 1154.52 2303.29 1163.27 Q2303.29 1172 2300.21 1176.61 Q2297.16 1181.19 2291.35 1181.19 Q2285.54 1181.19 2282.46 1176.61 Q2279.4 1172 2279.4 1163.27 Q2279.4 1154.52 2282.46 1149.94 Q2285.54 1145.33 2291.35 1145.33 Z" fill="#000000" fill-rule="nonzero" fill-opacity="1" /><path clip-path="url(#clip940)" d="M2311.51 1174.64 L2316.39 1174.64 L2316.39 1180.52 L2311.51 1180.52 L2311.51 1174.64 Z" fill="#000000" fill-rule="nonzero" fill-opacity="1" /><path clip-path="url(#clip940)" d="M2330.61 1176.58 L2346.92 1176.58 L2346.92 1180.52 L2324.98 1180.52 L2324.98 1176.58 Q2327.64 1173.83 2332.23 1169.2 Q2336.83 1164.55 2338.01 1163.2 Q2340.26 1160.68 2341.14 1158.94 Q2342.04 1157.19 2342.04 1155.5 Q2342.04 1152.74 2340.1 1151 Q2338.17 1149.27 2335.07 1149.27 Q2332.87 1149.27 2330.42 1150.03 Q2327.99 1150.8 2325.21 1152.35 L2325.21 1147.62 Q2328.04 1146.49 2330.49 1145.91 Q2332.94 1145.33 2334.98 1145.33 Q2340.35 1145.33 2343.54 1148.02 Q2346.74 1150.7 2346.74 1155.19 Q2346.74 1157.32 2345.93 1159.25 Q2345.14 1161.14 2343.04 1163.74 Q2342.46 1164.41 2339.36 1167.62 Q2336.25 1170.82 2330.61 1176.58 Z" fill="#000000" fill-rule="nonzero" fill-opacity="1" /><path clip-path="url(#clip940)" d="M2291.35 889.095 Q2287.74 889.095 2285.91 892.66 Q2284.1 896.202 2284.1 903.331 Q2284.1 910.438 2285.91 914.003 Q2287.74 917.544 2291.35 917.544 Q2294.98 917.544 2296.79 914.003 Q2298.61 910.438 2298.61 903.331 Q2298.61 896.202 2296.79 892.66 Q2294.98 889.095 2291.35 889.095 M2291.35 885.392 Q2297.16 885.392 2300.21 889.998 Q2303.29 894.582 2303.29 903.331 Q2303.29 912.058 2300.21 916.665 Q2297.16 921.248 2291.35 921.248 Q2285.54 921.248 2282.46 916.665 Q2279.4 912.058 2279.4 903.331 Q2279.4 894.582 2282.46 889.998 Q2285.54 885.392 2291.35 885.392 Z" fill="#000000" fill-rule="nonzero" fill-opacity="1" /><path clip-path="url(#clip940)" d="M2311.51 914.697 L2316.39 914.697 L2316.39 920.577 L2311.51 920.577 L2311.51 914.697 Z" fill="#000000" fill-rule="nonzero" fill-opacity="1" /><path clip-path="url(#clip940)" d="M2339.42 890.091 L2327.62 908.54 L2339.42 908.54 L2339.42 890.091 M2338.2 886.017 L2344.08 886.017 L2344.08 908.54 L2349.01 908.54 L2349.01 912.429 L2344.08 912.429 L2344.08 920.577 L2339.42 920.577 L2339.42 912.429 L2323.82 912.429 L2323.82 907.915 L2338.2 886.017 Z" fill="#000000" fill-rule="nonzero" fill-opacity="1" /><path clip-path="url(#clip940)" d="M2291.35 629.154 Q2287.74 629.154 2285.91 632.719 Q2284.1 636.26 2284.1 643.39 Q2284.1 650.496 2285.91 654.061 Q2287.74 657.603 2291.35 657.603 Q2294.98 657.603 2296.79 654.061 Q2298.61 650.496 2298.61 643.39 Q2298.61 636.26 2296.79 632.719 Q2294.98 629.154 2291.35 629.154 M2291.35 625.45 Q2297.16 625.45 2300.21 630.057 Q2303.29 634.64 2303.29 643.39 Q2303.29 652.117 2300.21 656.723 Q2297.16 661.307 2291.35 661.307 Q2285.54 661.307 2282.46 656.723 Q2279.4 652.117 2279.4 643.39 Q2279.4 634.64 2282.46 630.057 Q2285.54 625.45 2291.35 625.45 Z" fill="#000000" fill-rule="nonzero" fill-opacity="1" /><path clip-path="url(#clip940)" d="M2311.51 654.756 L2316.39 654.756 L2316.39 660.635 L2311.51 660.635 L2311.51 654.756 Z" fill="#000000" fill-rule="nonzero" fill-opacity="1" /><path clip-path="url(#clip940)" d="M2337.16 641.492 Q2334.01 641.492 2332.16 643.645 Q2330.33 645.797 2330.33 649.547 Q2330.33 653.274 2332.16 655.45 Q2334.01 657.603 2337.16 657.603 Q2340.3 657.603 2342.13 655.45 Q2343.98 653.274 2343.98 649.547 Q2343.98 645.797 2342.13 643.645 Q2340.3 641.492 2337.16 641.492 M2346.44 626.839 L2346.44 631.098 Q2344.68 630.265 2342.87 629.825 Q2341.09 629.385 2339.33 629.385 Q2334.7 629.385 2332.25 632.51 Q2329.82 635.635 2329.47 641.955 Q2330.84 639.941 2332.9 638.876 Q2334.96 637.788 2337.43 637.788 Q2342.64 637.788 2345.65 640.959 Q2348.68 644.108 2348.68 649.547 Q2348.68 654.871 2345.54 658.089 Q2342.39 661.307 2337.16 661.307 Q2331.16 661.307 2327.99 656.723 Q2324.82 652.117 2324.82 643.39 Q2324.82 635.196 2328.71 630.334 Q2332.6 625.45 2339.15 625.45 Q2340.91 625.45 2342.69 625.797 Q2344.49 626.145 2346.44 626.839 Z" fill="#000000" fill-rule="nonzero" fill-opacity="1" /><path clip-path="url(#clip940)" d="M2291.35 369.212 Q2287.74 369.212 2285.91 372.777 Q2284.1 376.319 2284.1 383.448 Q2284.1 390.555 2285.91 394.12 Q2287.74 397.661 2291.35 397.661 Q2294.98 397.661 2296.79 394.12 Q2298.61 390.555 2298.61 383.448 Q2298.61 376.319 2296.79 372.777 Q2294.98 369.212 2291.35 369.212 M2291.35 365.509 Q2297.16 365.509 2300.21 370.115 Q2303.29 374.698 2303.29 383.448 Q2303.29 392.175 2300.21 396.782 Q2297.16 401.365 2291.35 401.365 Q2285.54 401.365 2282.46 396.782 Q2279.4 392.175 2279.4 383.448 Q2279.4 374.698 2282.46 370.115 Q2285.54 365.509 2291.35 365.509 Z" fill="#000000" fill-rule="nonzero" fill-opacity="1" /><path clip-path="url(#clip940)" d="M2311.51 394.814 L2316.39 394.814 L2316.39 400.694 L2311.51 400.694 L2311.51 394.814 Z" fill="#000000" fill-rule="nonzero" fill-opacity="1" /><path clip-path="url(#clip940)" d="M2336.58 384.282 Q2333.24 384.282 2331.32 386.064 Q2329.42 387.847 2329.42 390.971 Q2329.42 394.096 2331.32 395.879 Q2333.24 397.661 2336.58 397.661 Q2339.91 397.661 2341.83 395.879 Q2343.75 394.073 2343.75 390.971 Q2343.75 387.847 2341.83 386.064 Q2339.93 384.282 2336.58 384.282 M2331.9 382.291 Q2328.89 381.55 2327.2 379.49 Q2325.54 377.43 2325.54 374.467 Q2325.54 370.323 2328.48 367.916 Q2331.44 365.509 2336.58 365.509 Q2341.74 365.509 2344.68 367.916 Q2347.62 370.323 2347.62 374.467 Q2347.62 377.43 2345.93 379.49 Q2344.26 381.55 2341.28 382.291 Q2344.66 383.078 2346.53 385.37 Q2348.43 387.661 2348.43 390.971 Q2348.43 395.995 2345.35 398.68 Q2342.29 401.365 2336.58 401.365 Q2330.86 401.365 2327.78 398.68 Q2324.73 395.995 2324.73 390.971 Q2324.73 387.661 2326.62 385.37 Q2328.52 383.078 2331.9 382.291 M2330.19 374.907 Q2330.19 377.592 2331.86 379.097 Q2333.54 380.601 2336.58 380.601 Q2339.59 380.601 2341.28 379.097 Q2342.99 377.592 2342.99 374.907 Q2342.99 372.222 2341.28 370.717 Q2339.59 369.212 2336.58 369.212 Q2333.54 369.212 2331.86 370.717 Q2330.19 372.222 2330.19 374.907 Z" fill="#000000" fill-rule="nonzero" fill-opacity="1" /><path clip-path="url(#clip940)" d="M2280.07 136.817 L2287.71 136.817 L2287.71 110.451 L2279.4 112.118 L2279.4 107.859 L2287.67 106.192 L2292.34 106.192 L2292.34 136.817 L2299.98 136.817 L2299.98 140.752 L2280.07 140.752 L2280.07 136.817 Z" fill="#000000" fill-rule="nonzero" fill-opacity="1" /><path clip-path="url(#clip940)" d="M2309.42 134.873 L2314.31 134.873 L2314.31 140.752 L2309.42 140.752 L2309.42 134.873 Z" fill="#000000" fill-rule="nonzero" fill-opacity="1" /><path clip-path="url(#clip940)" d="M2334.49 109.271 Q2330.88 109.271 2329.05 112.836 Q2327.25 116.377 2327.25 123.507 Q2327.25 130.613 2329.05 134.178 Q2330.88 137.72 2334.49 137.72 Q2338.13 137.72 2339.93 134.178 Q2341.76 130.613 2341.76 123.507 Q2341.76 116.377 2339.93 112.836 Q2338.13 109.271 2334.49 109.271 M2334.49 105.567 Q2340.3 105.567 2343.36 110.174 Q2346.44 114.757 2346.44 123.507 Q2346.44 132.234 2343.36 136.84 Q2340.3 141.423 2334.49 141.423 Q2328.68 141.423 2325.61 136.84 Q2322.55 132.234 2322.55 123.507 Q2322.55 114.757 2325.61 110.174 Q2328.68 105.567 2334.49 105.567 Z" fill="#000000" fill-rule="nonzero" fill-opacity="1" /><path clip-path="url(#clip942)" d="M289.305 123.472 L424.818 123.472 L560.331 123.472 L695.844 123.472 L831.357 123.472 L966.87 123.472 L1102.38 123.472 L1111.02 123.472 L1237.9 408.133 L1373.41 539.425 L1508.92 655.299 L1644.43 799.496 L1779.95 925.516 L1915.46 1039.8 L2050.97 1125.25 L2186.49 1211.89 L2186.49 658.583 L2050.97 579.295 L1915.46 506.838 L1779.95 438.291 L1644.43 388.107 L1508.92 314.771 L1373.41 226.452 L1237.9 162.463 L1111.02 123.472 L1102.38 123.472 L966.87 123.472 L831.357 123.472 L695.844 123.472 L560.331 123.472 L424.818 123.472 L289.305 123.472  Z" fill="#008000" fill-rule="evenodd" fill-opacity="0.5"/>
<polyline clip-path="url(#clip942)" style="stroke:#008000; stroke-linecap:round; stroke-linejoin:round; stroke-width:4; stroke-opacity:1; fill:none" points="289.305,123.472 424.818,123.472 560.331,123.472 695.844,123.472 831.357,123.472 966.87,123.472 1102.38,123.472 1111.02,123.472 1237.9,256.68 1373.41,369.968 1508.92,464.659 1644.43,570.247 1779.95,662.863 1915.46,750.917 2050.97,825.747 2186.49,909.476 "/>
<path clip-path="url(#clip940)" d="M1666.26 270.476 L2176.37 270.476 L2176.37 166.796 L1666.26 166.796  Z" fill="#ffffff" fill-rule="evenodd" fill-opacity="1"/>
<polyline clip-path="url(#clip940)" style="stroke:#000000; stroke-linecap:round; stroke-linejoin:round; stroke-width:4; stroke-opacity:1; fill:none" points="1666.26,270.476 2176.37,270.476 2176.37,166.796 1666.26,166.796 1666.26,270.476 "/>
<polyline clip-path="url(#clip940)" style="stroke:#008000; stroke-linecap:round; stroke-linejoin:round; stroke-width:4; stroke-opacity:1; fill:none" points="1688.61,218.636 1822.68,218.636 "/>
<path clip-path="url(#clip940)" d="M1852.13 201.356 L1856.8 201.356 L1856.8 233.508 Q1856.8 239.758 1854.42 242.582 Q1852.06 245.406 1846.8 245.406 L1845.02 245.406 L1845.02 241.471 L1846.48 241.471 Q1849.58 241.471 1850.85 239.735 Q1852.13 237.999 1852.13 233.508 L1852.13 201.356 Z" fill="#000000" fill-rule="nonzero" fill-opacity="1" /><path clip-path="url(#clip940)" d="M1875.97 212.976 Q1872.54 212.976 1870.55 215.661 Q1868.56 218.323 1868.56 222.976 Q1868.56 227.629 1870.53 230.314 Q1872.52 232.976 1875.97 232.976 Q1879.37 232.976 1881.36 230.291 Q1883.35 227.606 1883.35 222.976 Q1883.35 218.37 1881.36 215.684 Q1879.37 212.976 1875.97 212.976 M1875.97 209.365 Q1881.52 209.365 1884.7 212.976 Q1887.87 216.587 1887.87 222.976 Q1887.87 229.342 1884.7 232.976 Q1881.52 236.587 1875.97 236.587 Q1870.39 236.587 1867.22 232.976 Q1864.07 229.342 1864.07 222.976 Q1864.07 216.587 1867.22 212.976 Q1870.39 209.365 1875.97 209.365 Z" fill="#000000" fill-rule="nonzero" fill-opacity="1" /><path clip-path="url(#clip940)" d="M1894.93 209.99 L1899.19 209.99 L1899.19 235.916 L1894.93 235.916 L1894.93 209.99 M1894.93 199.897 L1899.19 199.897 L1899.19 205.291 L1894.93 205.291 L1894.93 199.897 Z" fill="#000000" fill-rule="nonzero" fill-opacity="1" /><path clip-path="url(#clip940)" d="M1929.65 220.268 L1929.65 235.916 L1925.39 235.916 L1925.39 220.407 Q1925.39 216.726 1923.96 214.897 Q1922.52 213.069 1919.65 213.069 Q1916.2 213.069 1914.21 215.268 Q1912.22 217.467 1912.22 221.263 L1912.22 235.916 L1907.94 235.916 L1907.94 209.99 L1912.22 209.99 L1912.22 214.018 Q1913.75 211.68 1915.81 210.522 Q1917.89 209.365 1920.6 209.365 Q1925.07 209.365 1927.36 212.143 Q1929.65 214.897 1929.65 220.268 Z" fill="#000000" fill-rule="nonzero" fill-opacity="1" /><path clip-path="url(#clip940)" d="M1942.36 202.629 L1942.36 209.99 L1951.13 209.99 L1951.13 213.3 L1942.36 213.3 L1942.36 227.374 Q1942.36 230.545 1943.21 231.448 Q1944.09 232.351 1946.76 232.351 L1951.13 232.351 L1951.13 235.916 L1946.76 235.916 Q1941.83 235.916 1939.95 234.087 Q1938.08 232.235 1938.08 227.374 L1938.08 213.3 L1934.95 213.3 L1934.95 209.99 L1938.08 209.99 L1938.08 202.629 L1942.36 202.629 Z" fill="#000000" fill-rule="nonzero" fill-opacity="1" /><path clip-path="url(#clip940)" d="M1992.7 202.49 L1992.7 207.05 Q1990.04 205.777 1987.68 205.152 Q1985.32 204.527 1983.12 204.527 Q1979.3 204.527 1977.22 206.008 Q1975.16 207.49 1975.16 210.221 Q1975.16 212.513 1976.52 213.694 Q1977.91 214.851 1981.76 215.569 L1984.58 216.147 Q1989.81 217.143 1992.29 219.666 Q1994.79 222.166 1994.79 226.379 Q1994.79 231.402 1991.41 233.994 Q1988.05 236.587 1981.55 236.587 Q1979.09 236.587 1976.32 236.031 Q1973.56 235.476 1970.6 234.388 L1970.6 229.573 Q1973.45 231.17 1976.18 231.981 Q1978.91 232.791 1981.55 232.791 Q1985.55 232.791 1987.73 231.217 Q1989.9 229.643 1989.9 226.726 Q1989.9 224.18 1988.33 222.744 Q1986.78 221.309 1983.21 220.592 L1980.37 220.036 Q1975.14 218.995 1972.8 216.772 Q1970.46 214.55 1970.46 210.592 Q1970.46 206.008 1973.68 203.37 Q1976.92 200.731 1982.59 200.731 Q1985.02 200.731 1987.54 201.171 Q1990.07 201.61 1992.7 202.49 Z" fill="#000000" fill-rule="nonzero" fill-opacity="1" /><path clip-path="url(#clip940)" d="M2001.45 225.684 L2001.45 209.99 L2005.71 209.99 L2005.71 225.522 Q2005.71 229.203 2007.15 231.055 Q2008.58 232.883 2011.45 232.883 Q2014.9 232.883 2016.89 230.684 Q2018.91 228.485 2018.91 224.689 L2018.91 209.99 L2023.17 209.99 L2023.17 235.916 L2018.91 235.916 L2018.91 231.934 Q2017.36 234.295 2015.3 235.453 Q2013.26 236.587 2010.55 236.587 Q2006.08 236.587 2003.77 233.809 Q2001.45 231.031 2001.45 225.684 M2012.17 209.365 L2012.17 209.365 Z" fill="#000000" fill-rule="nonzero" fill-opacity="1" /><path clip-path="url(#clip940)" d="M2046.96 213.971 Q2046.25 213.555 2045.39 213.37 Q2044.56 213.161 2043.54 213.161 Q2039.93 213.161 2037.98 215.522 Q2036.06 217.86 2036.06 222.258 L2036.06 235.916 L2031.78 235.916 L2031.78 209.99 L2036.06 209.99 L2036.06 214.018 Q2037.4 211.657 2039.56 210.522 Q2041.71 209.365 2044.79 209.365 Q2045.23 209.365 2045.76 209.434 Q2046.29 209.481 2046.94 209.596 L2046.96 213.971 Z" fill="#000000" fill-rule="nonzero" fill-opacity="1" /><path clip-path="url(#clip940)" d="M2048.38 209.99 L2052.89 209.99 L2060.99 231.749 L2069.09 209.99 L2073.61 209.99 L2063.89 235.916 L2058.1 235.916 L2048.38 209.99 Z" fill="#000000" fill-rule="nonzero" fill-opacity="1" /><path clip-path="url(#clip940)" d="M2079.49 209.99 L2083.75 209.99 L2083.75 235.916 L2079.49 235.916 L2079.49 209.99 M2079.49 199.897 L2083.75 199.897 L2083.75 205.291 L2079.49 205.291 L2079.49 199.897 Z" fill="#000000" fill-rule="nonzero" fill-opacity="1" /><path clip-path="url(#clip940)" d="M2089.6 209.99 L2094.12 209.99 L2102.22 231.749 L2110.32 209.99 L2114.83 209.99 L2105.11 235.916 L2099.32 235.916 L2089.6 209.99 Z" fill="#000000" fill-rule="nonzero" fill-opacity="1" /><path clip-path="url(#clip940)" d="M2132.5 222.883 Q2127.33 222.883 2125.34 224.064 Q2123.35 225.244 2123.35 228.092 Q2123.35 230.36 2124.83 231.703 Q2126.34 233.022 2128.91 233.022 Q2132.45 233.022 2134.58 230.522 Q2136.73 227.999 2136.73 223.832 L2136.73 222.883 L2132.5 222.883 M2140.99 221.124 L2140.99 235.916 L2136.73 235.916 L2136.73 231.981 Q2135.27 234.342 2133.1 235.476 Q2130.92 236.587 2127.77 236.587 Q2123.79 236.587 2121.43 234.365 Q2119.09 232.119 2119.09 228.369 Q2119.09 223.994 2122.01 221.772 Q2124.95 219.55 2130.76 219.55 L2136.73 219.55 L2136.73 219.133 Q2136.73 216.194 2134.79 214.596 Q2132.87 212.976 2129.37 212.976 Q2127.15 212.976 2125.04 213.508 Q2122.94 214.041 2120.99 215.106 L2120.99 211.17 Q2123.33 210.268 2125.53 209.828 Q2127.73 209.365 2129.81 209.365 Q2135.44 209.365 2138.21 212.282 Q2140.99 215.198 2140.99 221.124 Z" fill="#000000" fill-rule="nonzero" fill-opacity="1" /><path clip-path="url(#clip940)" d="M2149.76 199.897 L2154.02 199.897 L2154.02 235.916 L2149.76 235.916 L2149.76 199.897 Z" fill="#000000" fill-rule="nonzero" fill-opacity="1" /></svg>
